<svg xmlns="http://www.w3.org/2000/svg" viewBox="0 0 512 512" width="512" height="512" role="img" aria-labelledby="xt xd">
  <title id="xt">Xiangqi — BoardDuel</title>
  <desc id="xd">Square indigo icon with a nine by nine white tile grid; a faint river runs across the middle with two generals facing each other, the black general on an amber tile marking the last move.</desc>

  <rect width="512" height="512" fill="#3730A3"/>
  <g fill="#FFFFFF" fill-opacity="0.16">
    <rect x="29" y="29" width="38" height="38" rx="9"/>
    <rect x="81" y="29" width="38" height="38" rx="9"/>
    <rect x="133" y="29" width="38" height="38" rx="9"/>
    <rect x="185" y="29" width="38" height="38" rx="9"/>
    <rect x="237" y="29" width="38" height="38" rx="9"/>
    <rect x="289" y="29" width="38" height="38" rx="9"/>
    <rect x="341" y="29" width="38" height="38" rx="9"/>
    <rect x="393" y="29" width="38" height="38" rx="9"/>
    <rect x="445" y="29" width="38" height="38" rx="9"/>
    <rect x="29" y="81" width="38" height="38" rx="9"/>
    <rect x="81" y="81" width="38" height="38" rx="9"/>
    <rect x="133" y="81" width="38" height="38" rx="9"/>
    <rect x="185" y="81" width="38" height="38" rx="9"/>
    <rect x="237" y="81" width="38" height="38" rx="9"/>
    <rect x="289" y="81" width="38" height="38" rx="9"/>
    <rect x="341" y="81" width="38" height="38" rx="9"/>
    <rect x="393" y="81" width="38" height="38" rx="9"/>
    <rect x="445" y="81" width="38" height="38" rx="9"/>
    <rect x="29" y="133" width="38" height="38" rx="9"/>
    <rect x="81" y="133" width="38" height="38" rx="9"/>
    <rect x="133" y="133" width="38" height="38" rx="9"/>
    <rect x="185" y="133" width="38" height="38" rx="9"/>
    <rect x="237" y="133" width="38" height="38" rx="9"/>
    <rect x="289" y="133" width="38" height="38" rx="9"/>
    <rect x="341" y="133" width="38" height="38" rx="9"/>
    <rect x="393" y="133" width="38" height="38" rx="9"/>
    <rect x="445" y="133" width="38" height="38" rx="9"/>
    <rect x="29" y="185" width="38" height="38" rx="9"/>
    <rect x="81" y="185" width="38" height="38" rx="9"/>
    <rect x="133" y="185" width="38" height="38" rx="9"/>
    <rect x="185" y="185" width="38" height="38" rx="9"/>
    <rect x="237" y="185" width="38" height="38" rx="9"/>
    <rect x="289" y="185" width="38" height="38" rx="9"/>
    <rect x="341" y="185" width="38" height="38" rx="9"/>
    <rect x="393" y="185" width="38" height="38" rx="9"/>
    <rect x="445" y="185" width="38" height="38" rx="9"/>
    <rect x="29" y="237" width="38" height="38" rx="9"/>
    <rect x="81" y="237" width="38" height="38" rx="9"/>
    <rect x="133" y="237" width="38" height="38" rx="9"/>
    <rect x="185" y="237" width="38" height="38" rx="9"/>
    <rect x="237" y="237" width="38" height="38" rx="9"/>
    <rect x="289" y="237" width="38" height="38" rx="9"/>
    <rect x="341" y="237" width="38" height="38" rx="9"/>
    <rect x="393" y="237" width="38" height="38" rx="9"/>
    <rect x="445" y="237" width="38" height="38" rx="9"/>
    <rect x="29" y="289" width="38" height="38" rx="9"/>
    <rect x="81" y="289" width="38" height="38" rx="9"/>
    <rect x="133" y="289" width="38" height="38" rx="9"/>
    <rect x="185" y="289" width="38" height="38" rx="9"/>
    <rect x="237" y="289" width="38" height="38" rx="9"/>
    <rect x="289" y="289" width="38" height="38" rx="9"/>
    <rect x="341" y="289" width="38" height="38" rx="9"/>
    <rect x="393" y="289" width="38" height="38" rx="9"/>
    <rect x="445" y="289" width="38" height="38" rx="9"/>
    <rect x="29" y="341" width="38" height="38" rx="9"/>
    <rect x="81" y="341" width="38" height="38" rx="9"/>
    <rect x="133" y="341" width="38" height="38" rx="9"/>
    <rect x="185" y="341" width="38" height="38" rx="9"/>
    <rect x="237" y="341" width="38" height="38" rx="9"/>
    <rect x="289" y="341" width="38" height="38" rx="9"/>
    <rect x="341" y="341" width="38" height="38" rx="9"/>
    <rect x="393" y="341" width="38" height="38" rx="9"/>
    <rect x="445" y="341" width="38" height="38" rx="9"/>
    <rect x="29" y="393" width="38" height="38" rx="9"/>
    <rect x="81" y="393" width="38" height="38" rx="9"/>
    <rect x="133" y="393" width="38" height="38" rx="9"/>
    <rect x="185" y="393" width="38" height="38" rx="9"/>
    <rect x="237" y="393" width="38" height="38" rx="9"/>
    <rect x="289" y="393" width="38" height="38" rx="9"/>
    <rect x="341" y="393" width="38" height="38" rx="9"/>
    <rect x="393" y="393" width="38" height="38" rx="9"/>
    <rect x="445" y="393" width="38" height="38" rx="9"/>
    <rect x="29" y="445" width="38" height="38" rx="9"/>
    <rect x="81" y="445" width="38" height="38" rx="9"/>
    <rect x="133" y="445" width="38" height="38" rx="9"/>
    <rect x="185" y="445" width="38" height="38" rx="9"/>
    <rect x="237" y="445" width="38" height="38" rx="9"/>
    <rect x="289" y="445" width="38" height="38" rx="9"/>
    <rect x="341" y="445" width="38" height="38" rx="9"/>
    <rect x="393" y="445" width="38" height="38" rx="9"/>
    <rect x="445" y="445" width="38" height="38" rx="9"/>
  </g>
  <rect x="237" y="29" width="38" height="38" rx="9" fill="#F59E0B"/>
  <line x1="48" y1="256" x2="464" y2="256" stroke="#FFFFFF" stroke-opacity="0.22" stroke-width="3"/>
  <g>
    <path d="M152 48L360 101.19999999999999M360 48L152 101.19999999999999" stroke="#FFFFFF" stroke-opacity="0.22" stroke-width="2" fill="none"/>
    <path d="M152 410.8L360 464.0M360 410.8L152 464.0" stroke="#FFFFFF" stroke-opacity="0.22" stroke-width="2" fill="none"/>
  </g>
  <!-- black side discs -->
  <g>
    <circle cx="256" cy="48" r="15" fill="#1E1B39"/>
    <circle cx="256" cy="48" r="10" fill="none" stroke="#F7E8C8" stroke-width="2"/>
    <circle cx="152" cy="48" r="15" fill="#1E1B39"/>
    <circle cx="152" cy="48" r="10" fill="none" stroke="#F7E8C8" stroke-width="2"/>
    <circle cx="360" cy="48" r="15" fill="#1E1B39"/>
    <circle cx="360" cy="48" r="10" fill="none" stroke="#F7E8C8" stroke-width="2"/>
    <circle cx="100" cy="48" r="15" fill="#1E1B39"/>
    <circle cx="100" cy="48" r="10" fill="none" stroke="#F7E8C8" stroke-width="2"/>
    <circle cx="412" cy="48" r="15" fill="#1E1B39"/>
    <circle cx="412" cy="48" r="10" fill="none" stroke="#F7E8C8" stroke-width="2"/>
    <circle cx="48" cy="48" r="15" fill="#1E1B39"/>
    <circle cx="48" cy="48" r="10" fill="none" stroke="#F7E8C8" stroke-width="2"/>
    <circle cx="464" cy="48" r="15" fill="#1E1B39"/>
    <circle cx="464" cy="48" r="10" fill="none" stroke="#F7E8C8" stroke-width="2"/>
    <circle cx="100" cy="204" r="15" fill="#1E1B39"/>
    <circle cx="100" cy="204" r="10" fill="none" stroke="#F7E8C8" stroke-width="2"/>
    <circle cx="152" cy="204" r="15" fill="#1E1B39"/>
    <circle cx="152" cy="204" r="10" fill="none" stroke="#F7E8C8" stroke-width="2"/>
    <circle cx="360" cy="204" r="15" fill="#1E1B39"/>
    <circle cx="360" cy="204" r="10" fill="none" stroke="#F7E8C8" stroke-width="2"/>
    <circle cx="412" cy="204" r="15" fill="#1E1B39"/>
    <circle cx="412" cy="204" r="10" fill="none" stroke="#F7E8C8" stroke-width="2"/>
  </g>
  <!-- red side discs -->
  <g>
    <circle cx="256" cy="464" r="15" fill="#DC2626"/>
    <circle cx="256" cy="464" r="10" fill="none" stroke="#F7E8C8" stroke-width="2"/>
    <circle cx="152" cy="464" r="15" fill="#DC2626"/>
    <circle cx="152" cy="464" r="10" fill="none" stroke="#F7E8C8" stroke-width="2"/>
    <circle cx="360" cy="464" r="15" fill="#DC2626"/>
    <circle cx="360" cy="464" r="10" fill="none" stroke="#F7E8C8" stroke-width="2"/>
    <circle cx="100" cy="464" r="15" fill="#DC2626"/>
    <circle cx="100" cy="464" r="10" fill="none" stroke="#F7E8C8" stroke-width="2"/>
    <circle cx="412" cy="464" r="15" fill="#DC2626"/>
    <circle cx="412" cy="464" r="10" fill="none" stroke="#F7E8C8" stroke-width="2"/>
    <circle cx="48" cy="464" r="15" fill="#DC2626"/>
    <circle cx="48" cy="464" r="10" fill="none" stroke="#F7E8C8" stroke-width="2"/>
    <circle cx="464" cy="464" r="15" fill="#DC2626"/>
    <circle cx="464" cy="464" r="10" fill="none" stroke="#F7E8C8" stroke-width="2"/>
    <circle cx="100" cy="308" r="15" fill="#DC2626"/>
    <circle cx="100" cy="308" r="10" fill="none" stroke="#F7E8C8" stroke-width="2"/>
    <circle cx="152" cy="308" r="15" fill="#DC2626"/>
    <circle cx="152" cy="308" r="10" fill="none" stroke="#F7E8C8" stroke-width="2"/>
    <circle cx="360" cy="308" r="15" fill="#DC2626"/>
    <circle cx="360" cy="308" r="10" fill="none" stroke="#F7E8C8" stroke-width="2"/>
    <circle cx="412" cy="308" r="15" fill="#DC2626"/>
    <circle cx="412" cy="308" r="10" fill="none" stroke="#F7E8C8" stroke-width="2"/>
  </g>
</svg>
