<svg xmlns="http://www.w3.org/2000/svg" viewBox="0 0 512 512" width="512" height="512" role="img" aria-labelledby="tt dd">
  <title id="tt">Checkers — BoardDuel</title>
  <desc id="dd">Square indigo icon with a six by six board of light and dark squares; red and black checkers sit on the dark squares, one black piece is crowned with a gold ring, and an amber tile marks the last move.</desc>
  <rect width="512" height="512" fill="#312E81"/>
  <rect x="124.0" y="58.0" width="66.0" height="66.0" rx="10" fill="#FFFFFF" opacity="0.14"/><rect x="256.0" y="58.0" width="66.0" height="66.0" rx="10" fill="#FFFFFF" opacity="0.14"/><rect x="388.0" y="58.0" width="66.0" height="66.0" rx="10" fill="#FFFFFF" opacity="0.14"/><rect x="58.0" y="124.0" width="66.0" height="66.0" rx="10" fill="#FFFFFF" opacity="0.14"/><rect x="190.0" y="124.0" width="66.0" height="66.0" rx="10" fill="#FFFFFF" opacity="0.14"/><rect x="322.0" y="124.0" width="66.0" height="66.0" rx="10" fill="#FFFFFF" opacity="0.14"/><rect x="124.0" y="190.0" width="66.0" height="66.0" rx="10" fill="#FFFFFF" opacity="0.14"/><rect x="256.0" y="190.0" width="66.0" height="66.0" rx="10" fill="#FFFFFF" opacity="0.14"/><rect x="388.0" y="190.0" width="66.0" height="66.0" rx="10" fill="#FFFFFF" opacity="0.14"/><rect x="58.0" y="256.0" width="66.0" height="66.0" rx="10" fill="#FFFFFF" opacity="0.14"/><rect x="190.0" y="256.0" width="66.0" height="66.0" rx="10" fill="#FFFFFF" opacity="0.14"/><rect x="322.0" y="256.0" width="66.0" height="66.0" rx="10" fill="#FFFFFF" opacity="0.14"/><rect x="124.0" y="322.0" width="66.0" height="66.0" rx="10" fill="#FFFFFF" opacity="0.14"/><rect x="256.0" y="322.0" width="66.0" height="66.0" rx="10" fill="#FFFFFF" opacity="0.14"/><rect x="388.0" y="322.0" width="66.0" height="66.0" rx="10" fill="#FFFFFF" opacity="0.14"/><rect x="58.0" y="388.0" width="66.0" height="66.0" rx="10" fill="#FFFFFF" opacity="0.14"/><rect x="190.0" y="388.0" width="66.0" height="66.0" rx="10" fill="#FFFFFF" opacity="0.14"/><rect x="322.0" y="388.0" width="66.0" height="66.0" rx="10" fill="#FFFFFF" opacity="0.14"/>
  <rect x="190.0" y="256.0" width="66.0" height="66.0" rx="10" fill="#F59E0B"/>
  <circle cx="157.0" cy="91.0" r="21.1" fill="#1E1B39" stroke="#FFFFFF" stroke-width="2.5"/><circle cx="289.0" cy="91.0" r="21.1" fill="#1E1B39" stroke="#FFFFFF" stroke-width="2.5"/><circle cx="289.0" cy="91.0" r="21.1" fill="none" stroke="#F5C518" stroke-width="4"/><circle cx="421.0" cy="91.0" r="21.1" fill="#1E1B39" stroke="#FFFFFF" stroke-width="2.5"/><circle cx="91.0" cy="157.0" r="21.1" fill="#1E1B39" stroke="#FFFFFF" stroke-width="2.5"/><circle cx="223.0" cy="157.0" r="21.1" fill="#1E1B39" stroke="#FFFFFF" stroke-width="2.5"/><circle cx="355.0" cy="157.0" r="21.1" fill="#1E1B39" stroke="#FFFFFF" stroke-width="2.5"/><circle cx="157.0" cy="355.0" r="21.1" fill="#E5484D"/><circle cx="289.0" cy="355.0" r="21.1" fill="#E5484D"/><circle cx="421.0" cy="355.0" r="21.1" fill="#E5484D"/><circle cx="421.0" cy="355.0" r="21.1" fill="none" stroke="#F5C518" stroke-width="4"/><circle cx="91.0" cy="421.0" r="21.1" fill="#E5484D"/><circle cx="223.0" cy="421.0" r="21.1" fill="#E5484D"/><circle cx="355.0" cy="421.0" r="21.1" fill="#E5484D"/>
</svg>
